<svg xmlns="http://www.w3.org/2000/svg" version="1.1" xmlns:xlink="http://www.w3.org/1999/xlink" xmlns:svgjs="http://svgjs.com/svgjs" width="1920" height="1080" preserveAspectRatio="none" viewBox="0 0 1920 1080">
    <g mask="url(&quot;#SvgjsMask1020&quot;)" fill="none">
        <path d="M260.69 0C267.69 0.28 265.22 10.8 270 10.8C274.97 10.8 272.89 0.29 280.19 0C407.89 -5.11 410.1 0 540 0C675 0 675 0 810 0C945 0 945 0 1080 0C1215 0 1215 0 1350 0C1441.7 0 1461.38 -36.01 1533.4 0C1596.38 31.49 1578.55 135 1620 135C1660.1 135 1636.42 30.04 1696.5 0C1771.42 -37.46 1793.25 0 1890 0C1975.37 0 2027.53 -52.3 2060.74 0C2113.25 82.7 2027.06 152.88 2061.43 270C2076.69 322 2141.63 287.92 2160 338.24C2190.92 422.92 2160 439.12 2160 540C2160 675 2160 675 2160 810C2160 945 2218.85 1003.85 2160 1080C2114.53 1138.85 2042.52 1106.81 1951.36 1080C1907.52 1067.1 1929.27 1000.59 1890 1000.59C1823.59 1000.59 1819.08 1056.74 1740 1080C1684.08 1096.45 1680 1080 1620 1080C1485 1080 1485 1080 1350 1080C1215 1080 1215 1080 1080 1080C945 1080 945 1080 810 1080C675 1080 675 1080 540 1080C405 1080 405 1080 270 1080C139.22 1080 127.59 1094.89 8.44 1080C-7.41 1078.02 0.54 1063.58 0 1046.25C-3.68 928.58 0 928.13 0 810C0 675 0 675 0 540C0 405 0 405 0 270C0 135 -66.32 68.68 0 0C64.03 -66.32 132.69 -5.12 260.69 0" stroke="rgba(83, 109, 254, 1)" stroke-width="2"></path>
        <path d="M540 183.6C485.54 183.6 450 224.66 450 270C450 320.12 482.69 374.52 540 374.52C652.3 374.52 789.23 318.31 789.23 270C789.23 222.85 655.15 183.6 540 183.6" stroke="rgba(83, 109, 254, 1)" stroke-width="2"></path>
        <path d="M1080 231.43C1045.44 231.43 993.67 229.71 990 270C979.61 383.99 1021.84 404.8 1051.88 540C1066.84 607.3 1062.65 675 1080 675C1097.8 675 1121.04 609.22 1122.19 540C1124.41 406.72 1105.19 404.89 1086.75 270C1084.1 250.6 1093.82 231.43 1080 231.43" stroke="rgba(83, 109, 254, 1)" stroke-width="2"></path>
        <path d="M1620 488.57C1591.88 497.91 1585.16 514.28 1585.16 540C1585.16 565.71 1593.78 575.95 1620 591.43C1746.2 665.95 1786.61 735.62 1890 720C1956.83 709.9 1960.43 625.85 1960.43 540C1960.43 485.22 1942.76 446.72 1890 438.75C1772.55 421.01 1744.3 447.29 1620 488.57" stroke="rgba(83, 109, 254, 1)" stroke-width="2"></path>
        <path d="M31.15 270C31.15 256.4 2.14 264.73 0 246.18C-13.43 129.73 -45.49 77.6 0 0C26.67 -45.49 86.47 -31.23 144.31 0C221.47 41.67 210.65 70.19 270 145.8C316.62 205.19 356.25 205.97 356.25 270C356.25 343.8 323.99 354.47 270 421.46C215.19 489.47 138.65 486.21 138.65 540C138.65 587.37 202.71 623.79 270 623.79C346.77 623.79 347.92 581 426.77 540C482.92 510.8 479.9 501.98 540 483.39C671.51 442.71 691.22 403.35 810 421.46C876.85 431.65 894.79 468.93 911.25 540C939.79 663.2 887.95 676.57 900 810C912.33 946.57 989.18 992.47 960 1080C944.18 1127.47 885 1080 810 1080C675 1080 675 1080 540 1080C405 1080 405 1080 270 1080C244.69 1080 232.74 1099.37 219.38 1080C139.64 964.37 156.16 942.4 83.79 810C46.47 741.73 22.17 750.08 0 678.65C-19.73 615.08 0 609.33 0 540C0 423.41 -12.91 418.68 0 306.82C2.67 283.68 31.15 286.72 31.15 270" stroke="rgba(83, 109, 254, 0.5803921568627451)" stroke-width="2"></path>
        <path d="M540 93.6C465.19 67.46 407.55 25.76 407.55 0C407.55 -21.04 473.77 0 540 0C675 0 675 0 810 0C886.7 0 963.41 -29.84 963.41 0C963.41 40.48 901.37 120.43 810 140.63C689.67 167.23 666.42 137.77 540 93.6" stroke="rgba(83, 109, 254, 1)" stroke-width="2"></path>
        <path d="M1255.5 270C1235.37 137.67 1216.43 98.78 1251 0C1263.68 -36.22 1300.5 0 1350 0C1378.02 0 1392.28 -21.63 1406.04 0C1478.19 113.37 1531.2 138.85 1521.82 270C1511.89 408.85 1421.74 397.72 1367.42 540C1335.83 622.72 1358.57 720 1350 720C1341.43 720 1351.63 628.1 1333.13 540C1304.38 403.1 1276.44 407.67 1255.5 270" stroke="rgba(83, 109, 254, 1)" stroke-width="2"></path>
        <path d="M1713.91 270C1689.42 169.23 1740.37 105.23 1809 0C1828.42 -29.77 1849.5 0 1890 0C1925.74 0 1954.74 -28.25 1961.47 0C1986.89 106.75 1981.08 145.08 1954.29 270C1945.34 311.72 1929.1 333.28 1890 333.28C1808.91 333.28 1729.92 335.87 1713.91 270" stroke="rgba(83, 109, 254, 0.5803921568627451)" stroke-width="2"></path>
        <path d="M2033.8 540C2033.8 465.29 2123.12 412.42 2160 412.42C2186.22 412.42 2160 476.21 2160 540C2160 675 2189.99 810 2160 810C2126.89 810 2033.8 664.08 2033.8 540" stroke="rgba(83, 109, 254, 1)" stroke-width="2"></path>
        <path d="M540 643.24C479.94 643.24 447.05 726.33 447.05 810C447.05 895.62 479.63 981.82 540 981.82C617.55 981.82 722.9 895.23 722.9 810C722.9 725.94 617.86 643.24 540 643.24" stroke="rgba(83, 109, 254, 1)" stroke-width="2"></path>
        <path d="M1170 1080C1170 995.8 1260.51 816.59 1350 816.59C1439.03 816.59 1527.05 995.46 1527.05 1080C1527.05 1127.16 1438.53 1080 1350 1080C1260 1080 1170 1127.51 1170 1080" stroke="rgba(83, 109, 254, 1)" stroke-width="2"></path>
        <path d="M27.93 0C27.93 15.82 7.5 47.65 0 47.65C-6.47 47.65 -8.8 15.02 0 0C5.16 -8.8 27.93 -8 27.93 0" stroke="rgba(83, 109, 254, 0.5803921568627451)" stroke-width="2"></path>
        <path d="M540 3.6C536.9 3.6 534.91 0.99 534.91 0C534.91 -0.81 537.45 0 540 0C675 0 810 -0.9 810 0C810 0.9 674.44 3.6 540 3.6" stroke="rgba(83, 109, 254, 1)" stroke-width="2"></path>
        <path d="M2107.17 540C2107.17 508.72 2144.56 486.59 2160 486.59C2170.98 486.59 2160 513.3 2160 540C2160 596.51 2172.56 653.02 2160 653.02C2146.14 653.02 2107.17 591.94 2107.17 540" stroke="rgba(83, 109, 254, 0.5803921568627451)" stroke-width="2"></path>
        <path d="M200.17 810C200.17 770.61 235.53 740.17 270 740.17C303.64 740.17 336.39 770.89 336.39 810C336.39 865.36 303.84 929.12 270 929.12C235.73 929.12 200.17 865.08 200.17 810" stroke="rgba(83, 109, 254, 1)" stroke-width="2"></path>
        <path d="M1282.5 1080C1282.5 1048.42 1316.44 981.22 1350 981.22C1383.39 981.22 1416.39 1048.3 1416.39 1080C1416.39 1097.69 1383.2 1080 1350 1080C1316.25 1080 1282.5 1097.81 1282.5 1080" stroke="rgba(83, 109, 254, 1)" stroke-width="2"></path>
    </g>
    <defs>
        <mask id="SvgjsMask1020">
            <rect width="1920" height="1080" fill="#ffffff"></rect>
        </mask>
    </defs>
</svg>