<svg xmlns="http://www.w3.org/2000/svg" version="1.1" xmlns:xlink="http://www.w3.org/1999/xlink"
     xmlns:svgjs="http://svgjs.com/svgjs" width="1920" height="1080" preserveAspectRatio="none" viewBox="0 0 1920 1080">
    <g mask="url(&quot;#SvgjsMask1017&quot;)" fill="none">
        <path d="M270 207.39C153.2 115.68 53.18 60.2 53.18 0C53.18 -43.5 161.59 0 270 0C405 0 405 0 540 0C675 0 675 0 810 0C945 0 945 0 1080 0C1215 0 1215 0 1350 0C1420 0 1428.84 -24.47 1490 0C1563.84 29.53 1556.41 108 1620 108C1679.91 108 1668.15 27.54 1737 0C1803.15 -26.46 1813.5 0 1890 0C2025 0 2092.5 -67.5 2160 0C2227.5 67.5 2160 135 2160 270C2160 358.65 2187.95 370.74 2160 447.31C2138.67 505.74 2061.43 496.54 2061.43 540C2061.43 579.41 2141.08 561.24 2160 613.06C2190.37 696.24 2160 711.53 2160 810C2160 945 2227.5 1012.5 2160 1080C2092.5 1147.5 2025 1080 1890 1080C1755 1080 1755 1080 1620 1080C1495.39 1080 1481.98 1100.22 1370.77 1080C1346.98 1075.68 1360.75 1030.91 1350 1030.91C1339.11 1030.91 1351.68 1075.6 1327.5 1080C1216.68 1100.15 1203.75 1080 1080 1080C995.14 1080 974.8 1117.27 910.29 1080C839.8 1039.27 860.14 924 810 924C759.86 924 780.2 1039.27 709.71 1080C645.2 1117.27 624.86 1080 540 1080C405 1080 405 1080 270 1080C135 1080 68.01 1146.99 0 1080C-66.99 1014.01 -2.44 945.85 0 814.03C0.06 810.85 5 812.21 5 810C5 807.44 0.07 808.18 0 804.49C-2.43 673.18 0 672.24 0 540C0 420 -63.27 348.38 0 300C71.73 245.15 139.57 343.38 270 333.53C338.1 328.38 397.06 301.58 397.06 270C397.06 238.51 325.14 250.68 270 207.39"
              stroke="rgba(83, 109, 254, 1)" stroke-width="2"></path>
        <path d="M1080 520.99C1068.38 520.99 1059.55 529.93 1059.55 540C1059.55 551.28 1067.94 563.68 1080 563.68C1097.45 563.68 1118.57 550.95 1118.57 540C1118.57 529.6 1097.89 520.99 1080 520.99"
              stroke="rgba(83, 109, 254, 0.5803921568627451)" stroke-width="2"></path>
        <path d="M1620 494.04C1592.91 494.04 1563.16 512.59 1563.16 540C1563.16 578.77 1593.78 626.4 1620 626.4C1644.7 626.4 1665 579.86 1665 540C1665 513.68 1643.83 494.04 1620 494.04"
              stroke="rgba(83, 109, 254, 0.5803921568627451)" stroke-width="2"></path>
        <path d="M1890 797.14C1877.66 797.14 1861.58 803.14 1861.58 810C1861.58 817.07 1878 825 1890 825C1896.43 825 1898.44 817.36 1898.44 810C1898.44 803.43 1896.09 797.14 1890 797.14"
              stroke="rgba(83, 109, 254, 0.5803921568627451)" stroke-width="2"></path>
        <path d="M1350 270C1350 235.7 1502.79 275.2 1620 211.85C1752.54 140.2 1730 93.77 1849.5 0C1865 -12.16 1869.75 0 1890 0C2025 0 2092.5 -67.5 2160 0C2227.5 67.5 2160 135 2160 270C2160 308.28 2181.94 317.77 2160 346.57C2079.09 452.77 2050 437.25 1954.29 540C1915 582.18 1925.3 636.43 1890 636.43C1850.97 636.43 1849.59 586.57 1805.63 540C1714.59 443.57 1730.49 415.91 1620 350.43C1502.68 280.91 1350 304.99 1350 270"
              stroke="rgba(83, 109, 254, 1)" stroke-width="2"></path>
        <path d="M2003.91 810C2065.58 736.9 2111.27 692.47 2160 692.47C2189.31 692.47 2160 751.24 2160 810C2160 931.83 2190.6 954.23 2160 1053.66C2149.06 1089.23 2119.85 1075.81 2076.92 1080C1984.85 1088.98 1983.46 1080 1890 1080C1755 1080 1755 1080 1620 1080C1560.29 1080 1500.58 1113.92 1500.58 1080C1500.58 1013.76 1534.98 894.42 1620 879.68C1729.69 860.67 1781.68 1032.16 1890 1012.5C1973.64 997.32 1930.58 896.92 2003.91 810"
              stroke="rgba(83, 109, 254, 1)" stroke-width="2"></path>
        <path d="M270 11.74C261.8 11.74 257.73 3.41 257.73 0C257.73 -2.46 263.87 0 270 0C337.5 0 405 -2.93 405 0C405 2.94 335.43 11.74 270 11.74"
              stroke="rgba(83, 109, 254, 0.5803921568627451)" stroke-width="2"></path>
        <path d="M1008 270C943.01 145.36 884.98 84.44 907.5 0C920.98 -50.56 993.75 0 1080 0C1149 0 1200.27 -45.44 1218 0C1252.95 89.56 1233.04 155.71 1185.37 270C1164.04 321.13 1129.97 330.85 1080 330.85C1041.29 330.85 1029.26 310.78 1008 270"
              stroke="rgba(83, 109, 254, 1)" stroke-width="2"></path>
        <path d="M2160 38.57C2155.87 38.57 2144.12 13.97 2144.12 0C2144.12 -5.32 2157.68 -5.62 2160 0C2165.62 13.66 2163.81 38.57 2160 38.57"
              stroke="rgba(83, 109, 254, 1)" stroke-width="2"></path>
        <path d="M135 540C137.35 496.37 205.39 549.61 270 532.06C407.89 494.61 401.91 441.78 540 430C671.91 418.75 684.49 442.17 810 486C841.99 497.17 855 511.56 855 540C855 573.91 845.96 592.86 810 610.71C688.46 671.02 671.06 643.81 540 696.32C422.38 743.45 339.55 720.75 312.63 810C281.69 912.59 438.24 991.65 424.29 1080C416.92 1126.65 347.14 1080 270 1080C135 1080 108.98 1106.02 0 1080C-26.02 1073.78 -20.97 1037.73 0 1015.52C106.53 902.73 219.51 935 255 810C287.01 697.24 129.85 635.34 135 540"
              stroke="rgba(83, 109, 254, 0.5803921568627451)" stroke-width="2"></path>
        <path d="M1063.64 810C1063.64 801.77 1071.85 800.53 1080 800.53C1087.97 800.53 1095.88 801.9 1095.88 810C1095.88 840.38 1088.05 877.5 1080 877.5C1071.93 877.5 1063.64 840.25 1063.64 810"
              stroke="rgba(83, 109, 254, 1)" stroke-width="2"></path>
        <path d="M2109.38 810C2109.38 786.39 2144.2 771.88 2160 771.88C2169.51 771.88 2160 790.94 2160 810C2160 849.51 2171.57 889.02 2160 889.02C2146.26 889.02 2109.38 844.96 2109.38 810"
              stroke="rgba(83, 109, 254, 1)" stroke-width="2"></path>
    </g>
    <defs>
        <mask id="SvgjsMask1017">
            <rect width="1920" height="1080" fill="#ffffff"></rect>
        </mask>
    </defs>
</svg>